<svg width="21" height="21" viewBox="0 0 21 21" fill="none" xmlns="http://www.w3.org/2000/svg">
<path d="M19.9238 18.698L16.0988 14.8842C17.3329 13.312 18.0025 11.3705 18.0001 9.37173C18.0001 7.5917 17.4722 5.85163 16.4833 4.37159C15.4943 2.89154 14.0887 1.73798 12.4442 1.05679C10.7996 0.375604 8.99004 0.197373 7.24421 0.544641C5.49838 0.891909 3.89473 1.74908 2.63605 3.00775C1.37737 4.26643 0.520205 5.87008 0.172937 7.61591C-0.174331 9.36175 0.00389954 11.1714 0.68509 12.8159C1.36628 14.4604 2.51984 15.866 3.99988 16.855C5.47993 17.8439 7.21999 18.3718 9.00003 18.3718C10.9988 18.3742 12.9403 17.7046 14.5125 16.4705L18.3263 20.2955C18.4309 20.401 18.5553 20.4846 18.6924 20.5418C18.8295 20.5989 18.9765 20.6283 19.1251 20.6283C19.2736 20.6283 19.4206 20.5989 19.5577 20.5418C19.6948 20.4846 19.8192 20.401 19.9238 20.2955C20.0293 20.1909 20.1129 20.0665 20.1701 19.9294C20.2272 19.7923 20.2566 19.6453 20.2566 19.4968C20.2566 19.3482 20.2272 19.2012 20.1701 19.0641C20.1129 18.927 20.0293 18.8026 19.9238 18.698ZM2.25001 9.37173C2.25001 8.0367 2.64589 6.73166 3.38759 5.62162C4.12929 4.51159 5.1835 3.64642 6.41691 3.13553C7.65031 2.62464 9.00752 2.49096 10.3169 2.75141C11.6263 3.01186 12.829 3.65474 13.773 4.59875C14.717 5.54276 15.3599 6.74549 15.6203 8.05487C15.8808 9.36424 15.7471 10.7214 15.2362 11.9549C14.7253 13.1883 13.8602 14.2425 12.7501 14.9842C11.6401 15.7259 10.3351 16.1217 9.00003 16.1217C7.20981 16.1217 5.49292 15.4106 4.22704 14.1447C2.96117 12.8788 2.25001 11.1619 2.25001 9.37173Z" fill="#787881"/>
</svg>
